<?xml version="1.0" encoding="UTF-8" standalone="no" ?>
<!DOCTYPE svg PUBLIC "-//W3C//DTD SVG 1.1//EN" "http://www.w3.org/Graphics/SVG/1.1/DTD/svg11.dtd">
<svg xmlns="http://www.w3.org/2000/svg" xmlns:xlink="http://www.w3.org/1999/xlink" version="1.1" width="546.806" height="577.8083" xml:space="preserve">
<desc>Created with Fabric.js 1.6.0-rc.1</desc>
<defs></defs>
  <g transform="translate(301.48 281.41) scale(5.45 5.45)">
   <text font-family="ADAMCG PRO" font-size="40" font-weight="bold" style="stroke: none; stroke-width: 1; stroke-dasharray: none; stroke-linecap: butt; stroke-linejoin: miter; stroke-miterlimit: 10; fill: #9a999c; fill-rule: nonzero; opacity: 1;" ><tspan x="-21.89" y="8.98" style="stroke: none; stroke-width: 0; stroke-dasharray: none; stroke-linecap: butt; stroke-linejoin: miter; stroke-miterlimit: 4; fill: #9a999c; fill-rule: ; opacity: 1;">D</tspan><tspan x="5.1" y="8.98" style="stroke: none; stroke-width: 0; stroke-dasharray: none; stroke-linecap: butt; stroke-linejoin: miter; stroke-miterlimit: 4; fill: #9a999c; fill-rule: ; opacity: 1;">J</tspan></text>
 </g>
<g style="stroke: none; stroke-width: 1; stroke-dasharray: none; stroke-linecap: butt; stroke-linejoin: miter; stroke-miterlimit: 10; fill: none; fill-rule: nonzero; opacity: 1;" transform="translate(10 10) scale(2.59 2.59)" >
  <path d="M 202.403 95.22 c 0 46.312 -33.237 85.002 -77.109 93.484 v 25.663 l -69.76 -40 l 69.76 -40 v 23.494 c 27.176 -7.87 47.109 -32.964 47.109 -62.642 c 0 -35.962 -29.258 -65.22 -65.22 -65.22 s -65.22 29.258 -65.22 65.22 c 0 9.686 2.068 19.001 6.148 27.688 l -27.154 12.754 c -5.968 -12.707 -8.994 -26.313 -8.994 -40.441 C 11.964 42.716 54.68 0 107.184 0 S 202.403 42.716 202.403 95.22 z" style="stroke: none; stroke-width: 1; stroke-dasharray: none; stroke-linecap: butt; stroke-linejoin: miter; stroke-miterlimit: 10; fill: #8c8787; fill-rule: nonzero; opacity: 1;" transform=" matrix(1 0 0 1 0 0) " stroke-linecap="round" />
</g>
</svg>